<?xml version="1.0" standalone="no"?>
<!DOCTYPE svg PUBLIC "-//W3C//DTD SVG 20010904//EN"
 "http://www.w3.org/TR/2001/REC-SVG-20010904/DTD/svg10.dtd">
<svg version="1.0" xmlns="http://www.w3.org/2000/svg"
 width="512.000000pt" height="512.000000pt" viewBox="0 0 512.000000 512.000000"
 preserveAspectRatio="xMidYMid meet">
<metadata>
Created by potrace 1.14, written by Peter Selinger 2001-2017
</metadata>
<g transform="translate(0.000000,512.000000) scale(0.100000,-0.100000)"
fill="#000000" stroke="none">
<path d="M2379 5096 c-2 -2 -35 -6 -74 -10 -38 -3 -81 -8 -94 -10 -12 -3 -42
-7 -65 -10 -23 -3 -49 -7 -57 -10 -7 -3 -31 -8 -53 -11 -70 -10 -286 -75 -405
-121 -199 -78 -496 -246 -621 -351 -208 -174 -315 -280 -430 -423 -216 -272
-377 -585 -465 -905 -19 -71 -38 -141 -40 -155 -5 -27 -24 -130 -30 -170 -26
-147 -26 -635 -1 -711 3 -8 7 -32 10 -54 17 -138 76 -355 143 -525 291 -738
922 -1308 1678 -1515 254 -69 410 -90 685 -90 257 0 387 15 615 71 854 210
1565 885 1813 1719 47 161 57 205 87 385 26 165 27 632 1 712 -3 7 -7 31 -10
53 -35 251 -129 532 -263 785 -51 97 -185 307 -231 361 -113 135 -159 187
-237 263 -266 263 -596 467 -960 593 -74 25 -276 78 -335 88 -19 3 -46 7 -60
10 -14 2 -44 7 -67 10 -23 3 -57 8 -75 11 -37 6 -454 15 -459 10z m336 -1020
c264 -24 574 -147 768 -305 152 -124 264 -244 332 -356 29 -50 35 -68 35 -117
0 -145 -104 -240 -264 -241 -85 0 -160 32 -197 85 -97 136 -251 265 -403 338
-217 102 -479 123 -715 55 -290 -84 -548 -323 -659 -610 -258 -673 247 -1396
964 -1380 319 8 596 151 803 417 66 85 118 113 211 112 176 -2 299 -174 240
-336 -37 -99 -226 -303 -389 -418 -146 -104 -364 -206 -502 -236 -164 -35
-250 -46 -369 -47 -70 0 -250 12 -261 18 -3 2 -21 7 -40 10 -68 12 -115 24
-194 51 -488 164 -866 571 -994 1069 -48 188 -59 445 -25 630 73 410 309 774
649 1005 304 205 636 290 1010 256z"/>
</g>
</svg>
